# xmcd
#
# Track frame offsets:
# 150
# 13712
# 26032
# 38547
# 51355
# 62890
# 75552
# 88872
# 101545
# 113800
# 127117
# 140887
# 153930
# 167407
#
# Disc length: 2449 seconds
#
#
# Revision: 0
# Processed by: cddbd v1.5.1PL0 Copyright (c) Steve Scherf et al.
# Submitted via: FreeRIP 2.60 
#
DISCID=b7098f0e
DTITLE=Howlin Wolf - Tell Me (Rock Nº 34)
DYEAR=1997
DGENRE=Blues
TTITLE0=The Wolf At Your Door (a.k.a. Howlin' For My Baby)
TTITLE1=Dorothy Mae
TTITLE2=Neighbours
TTITLE3=I'm The Wolf
TTITLE4=Who Will Be The Next
TTITLE5=I Asked For Water (She Gave Me Gasoline)
TTITLE6=Tell Me
TTITLE7=Back Door Man
TTITLE8=Little Baby
TTITLE9=Tail Dragger
TTITLE10=300 Pounds Of Joy
TTITLE11=What A Woman!
TTITLE12=Who's Been Talkin'
TTITLE13=Rockin' Daddy
EXTD=
EXTT0=
EXTT1=
EXTT2=
EXTT3=
EXTT4=
EXTT5=
EXTT6=
EXTT7=
EXTT8=
EXTT9=
EXTT10=
EXTT11=
EXTT12=
EXTT13=
PLAYORDER=
